<?xml version="1.0" encoding="UTF-8" standalone="no"?>
<svg
   xmlns:dc="http://purl.org/dc/elements/1.1/"
   xmlns:cc="http://creativecommons.org/ns#"
   xmlns:rdf="http://www.w3.org/1999/02/22-rdf-syntax-ns#"
   xmlns:svg="http://www.w3.org/2000/svg"
   xmlns="http://www.w3.org/2000/svg"
   xmlns:sodipodi="http://sodipodi.sourceforge.net/DTD/sodipodi-0.dtd"
   xmlns:inkscape="http://www.inkscape.org/namespaces/inkscape"
   version="1.0"
   x="0"
   y="0"
   width="360"
   height="240"
   id="svg3708"
   sodipodi:docname="vs.svg"
   inkscape:version="0.92.1 r">
  <metadata
     id="metadata3714">
    <rdf:RDF>
      <cc:Work
         rdf:about="">
        <dc:format>image/svg+xml</dc:format>
        <dc:type
           rdf:resource="http://purl.org/dc/dcmitype/StillImage" />
      </cc:Work>
    </rdf:RDF>
  </metadata>
  <defs
     id="defs3712" />
  <sodipodi:namedview
     pagecolor="#ffffff"
     bordercolor="#666666"
     borderopacity="1"
     objecttolerance="10"
     gridtolerance="10"
     guidetolerance="10"
     inkscape:pageopacity="0"
     inkscape:pageshadow="2"
     inkscape:window-width="1918"
     inkscape:window-height="1060"
     id="namedview3710"
     showgrid="false"
     inkscape:zoom="3.4916667"
     inkscape:cx="138.51876"
     inkscape:cy="72.859271"
     inkscape:window-x="0"
     inkscape:window-y="18"
     inkscape:window-maximized="1"
     inkscape:current-layer="g3704" />
  <g
     transform="translate(180.000000,120.000000)"
     id="g3706">
    <g
       transform="scale(0.769231)"
       id="g3704">
      <g
         id="g4609"
         style="fill:#097986;fill-opacity:1">
        <path
           inkscape:connector-curvature="0"
           id="path3689"
           d="m 80.468972,117.13663 c 14.35702,9.39515 18.143816,5.8639 9.623675,-8.97423 C 81.572506,93.324272 68.465406,77.507135 53.96488,68.245811 39.464354,58.984486 34.359647,63.744706 42.583991,78.858671 50.811263,93.969905 66.11488,107.73875 80.468972,117.13663 Z"
           style="fill:#097986;fill-opacity:1;stroke:#000000;stroke-width:1.60179198" />
        <path
           inkscape:connector-curvature="0"
           id="path3691"
           d="M 39.591137,76.124838 51.625125,64.902953 -93.639586,-87.380589 l -16.680114,-9.320436 8.13127,17.292371 z"
           style="fill:#097986;fill-opacity:1;stroke:#000000;stroke-width:1.60179198" />
        <rect
           transform="matrix(0.7313534,-0.68199868,-0.68199868,-0.7313534,0,0)"
           id="rect3695"
           y="-88.149384"
           x="-47.144981"
           height="8.5615778"
           width="64.820511"
           style="fill:#097986;fill-opacity:1;stroke:#000000;stroke-width:1.60179198" />
        <path
           inkscape:connector-curvature="0"
           id="path3697"
           d="m 91.899109,103.24734 c -4.345101,-4.659548 -11.640506,-4.914306 -16.297123,-0.57194 -4.659545,4.3451 -4.914303,11.64051 -0.566274,16.29732 4.339441,4.65935 11.637577,4.91704 16.297122,0.57194 4.656617,-4.34237 4.908644,-11.6407 0.566275,-16.29732 z"
           style="fill:#097986;fill-opacity:1;stroke:#000000;stroke-width:1.60179198" />
        <path
           inkscape:connector-curvature="0"
           id="path3699"
           d="m 87.025769,107.79181 c -1.835266,-1.96808 -4.914164,-2.0756 -6.879315,-0.24307 -1.96808,1.83527 -2.075596,4.91417 -0.237402,6.87952 1.829606,1.96788 4.908504,2.07539 6.876584,0.24013 1.965151,-1.83254 2.072667,-4.91143 0.240133,-6.87658 z"
           style="fill:#097986;fill-opacity:1;stroke:#000000;stroke-width:1.60179198" />
      </g>
      <g
         id="g4616"
         style="fill:#ce0318;fill-opacity:1">
        <path
           style="fill:#ce0318;fill-opacity:1;stroke:#000000;stroke-width:1.60179198"
           d="m -97.001938,118.12887 c -14.357022,9.39515 -18.143812,5.8639 -9.623672,-8.97423 8.520138,-14.838128 21.627238,-30.655265 36.127764,-39.916589 14.500526,-9.261325 19.605233,-4.501105 11.380889,10.61286 -8.227272,15.111234 -23.530889,28.880079 -37.884981,38.277959 z"
           id="path4582"
           inkscape:connector-curvature="0" />
        <path
           style="fill:#ce0318;fill-opacity:1;stroke:#000000;stroke-width:1.60179198"
           d="M -56.124103,77.117078 -68.158091,65.895193 77.10662,-86.388349 l 16.680118,-9.320436 -8.131272,17.292371 z"
           id="path4584"
           inkscape:connector-curvature="0" />
        <rect
           transform="rotate(-136.99997)"
           style="fill:#ce0318;fill-opacity:1;stroke:#000000;stroke-width:1.60179198"
           width="64.820511"
           height="8.5615778"
           x="-35.730244"
           y="-100.15052"
           id="rect4586" />
        <path
           style="fill:#ce0318;fill-opacity:1;stroke:#000000;stroke-width:1.60179198"
           d="m -108.43207,104.23958 c 4.3451,-4.659548 11.640501,-4.914306 16.297118,-0.57194 4.659545,4.3451 4.914303,11.64051 0.566274,16.29732 -4.339441,4.65935 -11.637572,4.91704 -16.297122,0.57194 -4.65662,-4.34237 -4.90864,-11.6407 -0.56627,-16.29732 z"
           id="path4588"
           inkscape:connector-curvature="0" />
        <path
           style="fill:#ce0318;fill-opacity:1;stroke:#000000;stroke-width:1.60179198"
           d="m -103.55873,108.78405 c 1.83526,-1.96808 4.914159,-2.0756 6.87931,-0.24307 1.96808,1.83527 2.075596,4.91417 0.237402,6.87952 -1.829606,1.96788 -4.908502,2.07539 -6.876582,0.24013 -1.96515,-1.83254 -2.07267,-4.91143 -0.24013,-6.87658 z"
           id="path4590"
           inkscape:connector-curvature="0" />
      </g>
    </g>
  </g>
</svg>
