<svg id="Layer_1" data-name="Layer 1" xmlns="http://www.w3.org/2000/svg" viewBox="0 0 316.24 280.96"><defs><style>.cls-1,.cls-2{fill:none;stroke-miterlimit:10;stroke-width:5px;}.cls-1{stroke:#097986;}.cls-2{stroke:#e22828;}</style></defs><title>Artboard 5</title><path class="cls-1" d="M242.28,217.37a7.22,7.22,0,1,1-7.18-7.26A7.24,7.24,0,0,1,242.28,217.37Z"/><path class="cls-1" d="M215.4,201.17l3.33-3.31,6.86,6.83L222.27,208Z"/><line class="cls-1" x1="73.96" y1="56.4" x2="199.42" y2="181.51"/><line class="cls-2" x1="239.51" y1="59.71" x2="114.4" y2="185.17"/><line class="cls-1" x1="223.97" y1="177.01" x2="192.77" y2="208.04"/><path class="cls-2" d="M74,217.37a7.22,7.22,0,1,0,7.18-7.26A7.24,7.24,0,0,0,74,217.37Z"/><path class="cls-2" d="M100.84,201.17l-3.33-3.31-6.86,6.83L94,208Z"/><line class="cls-2" x1="92.27" y1="177.01" x2="123.47" y2="208.04"/></svg>